<?xml version="1.0" encoding="UTF-8" ?>
<!DOCTYPE svg PUBLIC "-//W3C//DTD SVG 1.1//EN" "http://www.w3.org/Graphics/SVG/1.1/DTD/svg11.dtd">
<svg width="980pt" height="980pt" viewBox="0 0 980 980" version="1.1" xmlns="http://www.w3.org/2000/svg">
<g id="#ffffffff">
<path fill="#3b5998" opacity="1.00" d=" M 484.85 167.28 C 500.61 164.36 517.48 167.45 530.99 176.13 C 549.38 187.43 561.22 208.48 561.28 230.07 C 561.35 299.85 561.25 369.63 561.33 439.41 C 630.54 439.38 699.74 439.41 768.95 439.40 C 783.55 439.21 798.24 444.05 809.66 453.21 C 822.69 463.28 831.55 478.55 833.83 494.86 C 836.08 510.14 832.46 526.15 824.03 539.08 C 812.66 556.84 792.20 568.40 771.07 568.65 C 701.08 568.69 631.09 568.65 561.10 568.67 C 561.09 638.11 561.11 707.54 561.10 776.98 C 561.13 789.06 557.74 801.14 551.32 811.38 C 542.73 825.13 528.88 835.57 513.17 839.69 C 495.55 844.48 475.95 841.35 460.78 831.16 C 443.14 819.63 431.74 799.10 431.71 777.97 C 431.65 708.19 431.76 638.42 431.66 568.65 C 362.11 568.69 292.56 568.65 223.01 568.67 C 207.04 568.67 191.16 562.41 179.52 551.47 C 169.64 542.38 162.64 530.18 160.01 517.00 C 157.10 502.80 159.08 487.64 165.69 474.74 C 174.44 457.50 191.19 444.48 210.19 440.66 C 218.02 438.87 226.09 439.41 234.06 439.33 C 300.00 439.33 365.95 439.34 431.90 439.33 C 431.90 369.90 431.89 300.47 431.90 231.05 C 431.82 215.17 437.82 199.29 448.61 187.61 C 458.01 177.08 470.95 169.78 484.85 167.28 Z" />
</g>
<g id="#000000ff">
</g>
</svg>
