<?xml version="1.0" encoding="UTF-8" ?>
<!DOCTYPE svg PUBLIC "-//W3C//DTD SVG 1.1//EN" "http://www.w3.org/Graphics/SVG/1.1/DTD/svg11.dtd">
<svg width="225pt" height="225pt" viewBox="0 0 225 225" version="1.1" xmlns="http://www.w3.org/2000/svg">
<g id="#ffffffff">
</g>
<g id="#000000ff">
<path fill="#000000" opacity="1.00" d=" M 57.30 19.10 C 60.16 18.70 63.06 18.83 65.94 18.81 C 91.28 18.81 116.62 18.83 141.96 18.80 C 144.22 18.87 146.91 18.35 148.63 20.21 C 160.73 32.17 172.68 44.27 184.76 56.26 C 186.02 57.56 187.57 59.00 187.40 61.00 C 187.44 101.65 187.42 142.31 187.41 182.97 C 187.51 192.36 181.26 201.37 172.46 204.61 C 169.15 205.95 165.56 206.27 162.02 206.19 C 130.00 206.18 97.98 206.19 65.95 206.19 C 61.98 206.16 57.91 206.44 54.09 205.13 C 44.53 202.38 37.44 192.92 37.59 182.95 C 37.57 135.96 37.57 88.97 37.60 41.99 C 37.40 30.86 46.32 20.63 57.30 19.10 M 46.96 42.02 C 46.94 89.03 46.94 136.03 46.96 183.03 C 46.70 188.96 51.03 194.54 56.63 196.24 C 59.33 197.20 62.24 196.91 65.05 196.97 C 98.08 196.93 131.11 196.99 164.14 196.94 C 171.52 197.05 178.43 190.46 178.04 182.96 C 178.06 143.82 178.07 104.68 178.04 65.55 C 167.08 65.50 156.12 65.63 145.17 65.49 C 142.83 65.53 140.56 63.44 140.77 61.04 C 140.74 50.04 140.77 39.05 140.76 28.05 C 114.17 28.05 87.58 28.02 60.99 28.06 C 53.56 27.88 46.57 34.48 46.96 42.02 M 149.86 34.66 C 149.95 41.90 149.89 49.14 149.90 56.38 C 157.14 56.38 164.39 56.39 171.63 56.37 C 164.42 49.10 157.21 41.80 149.86 34.66 Z" />
</g>
</svg>
