<?xml version="1.0" encoding="UTF-8" ?>
<!DOCTYPE svg PUBLIC "-//W3C//DTD SVG 1.1//EN" "http://www.w3.org/Graphics/SVG/1.1/DTD/svg11.dtd">
<svg width="417pt" height="130pt" viewBox="0 0 417 130" version="1.1" xmlns="http://www.w3.org/2000/svg">
<g id="#000000ff">
</g>
<g id="#ffffffff">
<path fill="#ffffff" opacity="1.00" d=" M 5.65 17.02 C 5.67 12.24 9.47 7.97 14.17 7.23 C 20.27 6.15 28.47 6.60 31.45 13.06 C 32.16 16.94 31.79 20.92 31.86 24.84 C 30.02 24.84 28.18 24.83 26.34 24.80 C 26.26 21.75 26.67 18.64 26.07 15.63 C 24.40 11.19 18.27 10.44 14.53 12.55 C 11.81 13.88 11.74 17.33 11.74 19.95 C 11.87 29.64 11.60 39.35 11.87 49.04 C 12.24 55.61 21.99 56.37 25.49 51.89 C 25.96 49.48 25.82 47.00 25.82 44.56 C 27.98 44.17 30.68 42.79 32.38 44.94 C 32.57 48.84 32.31 53.37 29.22 56.18 C 25.24 59.82 19.27 59.70 14.27 58.88 C 9.50 58.15 5.67 53.82 5.64 48.99 C 5.59 38.33 5.58 27.67 5.65 17.02 Z" />
<path fill="#ffffff" opacity="1.00" d=" M 52.30 7.35 C 59.21 5.81 69.39 6.79 71.29 15.09 C 71.63 26.40 71.38 37.73 71.42 49.04 C 71.57 53.62 67.93 57.75 63.52 58.67 C 59.14 59.67 54.33 59.71 50.11 58.02 C 46.51 56.65 44.08 52.87 44.31 49.03 C 44.24 38.08 44.15 27.12 44.36 16.17 C 44.32 11.72 48.12 8.17 52.30 7.35 M 53.40 12.36 C 51.79 13.01 50.26 14.29 50.44 16.20 C 50.23 26.80 50.42 37.42 50.35 48.03 C 49.05 56.55 64.96 57.12 65.32 49.01 C 65.30 38.02 65.47 27.00 65.23 16.01 C 63.84 11.22 57.33 10.51 53.40 12.36 Z" />
<path fill="#ffffff" opacity="1.00" d=" M 121.41 16.95 C 121.01 11.59 125.92 7.29 131.03 7.01 C 137.08 6.18 145.32 7.20 147.41 14.03 C 148.07 20.80 147.60 27.64 147.69 34.44 C 140.95 34.46 134.20 34.45 127.46 34.45 C 127.67 40.04 127.03 45.69 127.79 51.24 C 130.44 55.85 137.96 55.71 141.19 51.80 C 141.85 49.19 141.58 46.46 141.71 43.79 C 143.68 43.77 145.65 43.76 147.62 43.73 C 147.64 47.68 148.45 52.28 145.51 55.47 C 141.73 59.73 135.34 59.72 130.15 58.96 C 125.72 58.33 121.53 54.74 121.46 50.06 C 121.26 39.03 121.34 27.99 121.41 16.95 M 127.80 14.76 C 127.03 19.73 127.68 24.82 127.45 29.83 C 132.16 29.88 136.87 29.83 141.58 29.87 C 141.56 24.92 141.86 19.95 141.42 15.02 C 138.87 10.23 130.65 10.21 127.80 14.76 Z" />
<path fill="#ffffff" opacity="1.00" d=" M 172.27 7.11 C 175.71 6.41 179.90 6.88 182.14 9.91 C 184.64 13.25 184.23 17.68 184.32 21.61 C 182.39 22.18 180.39 22.38 178.38 22.34 C 178.08 19.16 179.08 15.60 177.19 12.77 C 176.04 11.81 174.61 11.16 173.10 11.59 C 169.18 13.37 167.54 17.97 167.55 22.01 C 167.52 34.13 167.61 46.24 167.51 58.36 C 165.72 58.36 163.93 58.41 162.14 58.29 C 161.13 57.14 161.79 55.42 161.58 54.03 C 161.60 38.74 161.67 23.45 161.55 8.16 C 162.20 8.02 163.49 7.74 164.14 7.61 C 164.97 9.27 165.69 10.98 166.49 12.66 C 167.89 10.40 169.35 7.56 172.27 7.11 Z" />
<path fill="#ffffff" opacity="1.00" d=" M 209.52 16.93 C 209.32 11.69 213.96 7.37 219.02 7.03 C 224.36 6.49 231.16 6.61 234.40 11.66 C 236.54 15.78 236.49 20.76 235.72 25.25 C 233.69 25.19 231.67 24.93 229.67 24.62 C 229.58 21.16 230.19 17.55 229.21 14.19 C 225.84 10.09 217.30 10.35 215.67 15.98 C 215.54 27.30 215.53 38.63 215.67 49.94 C 217.01 55.88 226.45 56.20 229.39 51.46 C 229.77 48.98 229.84 46.46 230.31 43.99 C 232.11 43.85 233.91 43.79 235.72 43.76 C 235.62 47.72 236.66 52.46 233.56 55.59 C 229.49 59.95 222.71 59.82 217.31 58.70 C 212.82 57.88 209.37 53.61 209.51 49.06 C 209.45 38.35 209.45 27.64 209.52 16.93 Z" />
<path fill="#ffffff" opacity="1.00" d=" M 255.33 7.46 C 260.00 6.51 265.19 6.34 269.59 8.43 C 272.85 9.87 274.92 13.41 274.67 16.96 C 274.73 27.98 274.80 39.02 274.63 50.04 C 274.68 53.87 271.72 57.18 268.19 58.31 C 263.85 59.71 259.03 59.70 254.66 58.43 C 250.53 57.24 247.58 53.19 247.60 48.91 C 247.50 38.31 247.48 27.71 247.60 17.11 C 247.59 12.58 250.92 8.45 255.33 7.46 M 258.50 11.74 C 256.06 12.37 253.44 14.32 253.65 17.10 C 253.64 27.70 253.64 38.30 253.66 48.90 C 253.74 57.10 270.01 56.62 268.60 48.02 C 268.48 37.15 268.81 26.27 268.44 15.41 C 267.23 11.51 261.96 10.99 258.50 11.74 Z" />
<path fill="#ffffff" opacity="1.00" d=" M 348.84 9.88 C 352.82 6.27 358.75 6.47 363.70 7.32 C 368.23 8.11 371.74 12.38 371.57 16.98 C 371.68 30.70 371.54 44.43 371.63 58.16 C 370.93 58.24 369.52 58.39 368.82 58.47 C 368.21 57.04 367.61 55.60 367.04 54.16 C 364.11 57.08 360.39 59.85 356.00 59.31 C 351.57 59.54 346.75 57.05 345.62 52.53 C 345.14 48.04 345.40 43.49 345.40 38.98 C 345.09 34.57 348.82 30.58 353.12 30.09 C 357.25 29.57 361.44 29.97 365.60 29.82 C 365.38 24.79 365.98 19.69 365.25 14.70 C 362.63 10.54 356.06 10.44 352.75 13.82 C 352.05 16.37 352.35 19.05 352.17 21.66 C 350.06 21.70 347.95 21.71 345.84 21.67 C 345.55 17.63 345.64 12.84 348.84 9.88 M 354.61 34.69 C 352.92 35.48 351.31 37.07 351.45 39.07 C 351.51 43.40 350.90 47.87 351.88 52.12 C 355.69 57.58 364.18 53.10 365.47 47.73 C 365.74 43.32 365.50 38.88 365.58 34.46 C 361.92 34.54 358.24 34.19 354.61 34.69 Z" />
<path fill="#ffffff" opacity="1.00" d=" M 80.39 7.77 C 82.41 7.80 84.43 7.84 86.44 7.94 C 89.65 22.02 92.75 36.12 96.04 50.17 C 97.63 45.97 98.36 41.52 99.40 37.17 C 101.55 27.46 104.13 17.83 105.92 8.04 C 107.92 7.86 109.93 7.79 111.94 7.75 C 110.12 18.19 107.29 28.43 105.18 38.82 C 103.57 45.34 102.57 52.03 100.45 58.42 C 97.58 58.34 94.71 58.34 91.85 58.34 C 87.84 41.53 84.25 24.62 80.39 7.77 Z" />
<path fill="#ffffff" opacity="1.00" d=" M 288.56 7.97 C 290.78 7.72 293.03 7.82 295.22 8.30 C 295.10 23.45 295.17 38.60 295.18 53.75 C 299.87 53.77 304.57 53.72 309.26 53.80 C 309.26 55.29 309.26 56.78 309.28 58.28 C 302.39 58.42 295.50 58.33 288.61 58.33 C 288.56 41.54 288.66 24.76 288.56 7.97 Z" />
<path fill="#ffffff" opacity="1.00" d=" M 317.72 7.82 C 319.68 7.80 321.63 7.80 323.60 7.79 C 323.63 23.09 323.64 38.39 323.59 53.69 C 328.31 53.79 333.03 53.75 337.76 53.74 C 337.77 55.28 337.76 56.82 337.73 58.36 C 331.06 58.32 324.39 58.39 317.73 58.31 C 317.70 41.48 317.71 24.65 317.72 7.82 Z" />
<path fill="#ffffff" opacity="1.00" d=" M 385.67 8.13 C 392.66 8.02 400.51 6.28 406.85 10.04 C 411.76 13.34 410.56 19.87 410.53 24.93 C 410.64 27.89 408.18 29.86 406.25 31.71 C 408.82 33.33 411.34 35.64 411.39 38.93 C 411.33 43.68 412.33 48.83 410.08 53.24 C 408.63 56.32 405.11 57.69 401.98 58.27 C 396.59 58.48 391.18 58.29 385.79 58.34 C 385.60 41.60 385.83 24.86 385.67 8.13 M 391.69 12.44 C 391.69 18.23 391.68 24.02 391.70 29.82 C 395.43 29.69 399.81 30.66 402.93 28.01 C 405.56 24.71 404.54 20.02 404.26 16.13 C 402.28 11.13 395.91 12.57 391.69 12.44 M 391.69 33.57 C 391.69 40.29 391.65 47.00 391.72 53.72 C 396.33 53.57 404.08 55.23 405.28 48.98 C 405.24 44.90 406.23 40.42 404.48 36.60 C 401.77 32.26 395.96 33.76 391.69 33.57 Z" />
<path fill="#ffffff" opacity="1.00" d=" M 109.55 89.91 C 114.87 89.30 120.27 89.71 125.62 89.75 C 125.56 90.40 125.45 91.71 125.39 92.36 C 123.42 92.37 121.45 92.40 119.49 92.44 C 119.47 101.59 119.46 110.75 119.50 119.90 C 118.17 119.91 116.84 119.91 115.51 119.90 C 115.59 110.77 115.46 101.64 115.59 92.52 C 113.46 92.42 111.34 92.35 109.21 92.23 C 109.30 91.65 109.47 90.49 109.55 89.91 Z" />
<path fill="#ffffff" opacity="1.00" d=" M 134.15 91.75 C 136.85 89.15 141.73 88.51 144.03 91.97 C 144.83 94.06 144.33 96.42 144.50 98.62 C 143.50 98.66 142.51 98.70 141.53 98.76 C 141.17 96.63 140.69 94.52 140.26 92.41 C 136.90 91.87 134.73 95.12 134.69 98.15 C 134.52 105.46 134.77 112.78 134.58 120.09 C 133.80 120.06 132.23 120.01 131.44 119.99 C 131.08 109.88 131.29 99.73 131.36 89.61 C 132.06 90.15 133.45 91.22 134.15 91.75 Z" />
<path fill="#ffffff" opacity="1.00" d=" M 149.73 92.76 C 152.94 88.21 161.42 88.23 164.40 93.02 C 164.77 102.10 164.60 111.21 164.47 120.30 C 163.38 119.57 162.31 118.82 161.23 118.09 C 158.19 120.32 153.54 120.96 150.49 118.42 C 148.16 115.87 148.59 112.19 148.62 109.02 C 148.55 106.29 150.33 103.40 153.01 102.64 C 155.76 102.38 158.52 102.51 161.28 102.40 C 161.21 99.85 161.51 97.26 161.07 94.74 C 159.72 91.81 156.10 92.14 153.65 93.30 C 153.38 94.99 153.06 96.68 152.67 98.35 C 151.57 98.32 150.47 98.31 149.37 98.31 C 149.43 96.46 149.34 94.58 149.73 92.76 M 152.55 106.84 C 152.98 110.00 151.57 113.73 153.60 116.45 C 156.64 117.90 160.48 115.88 161.19 112.65 C 161.39 110.23 161.26 107.80 161.31 105.38 C 158.31 105.26 155.00 104.67 152.55 106.84 Z" />
<path fill="#ffffff" opacity="1.00" d=" M 172.56 93.52 C 174.61 88.98 180.62 88.95 184.69 90.22 C 188.50 91.67 188.57 96.19 188.43 99.60 C 187.10 99.67 185.77 99.74 184.45 99.79 C 184.41 97.83 184.40 95.87 184.38 93.92 C 181.93 92.16 178.97 92.04 176.37 93.55 C 176.36 95.17 176.25 96.81 176.50 98.43 C 179.66 102.33 184.17 104.88 187.26 108.83 C 188.99 110.82 188.54 113.58 188.41 115.99 C 187.50 118.61 184.60 120.01 181.95 119.99 C 178.54 120.31 174.40 119.87 172.63 116.48 C 172.29 114.34 172.40 112.17 172.33 110.02 C 173.65 110.02 174.96 110.08 176.28 110.19 C 176.31 112.10 176.35 114.01 176.43 115.92 C 179.08 117.43 182.03 117.29 184.65 115.78 C 184.41 113.97 185.15 111.73 183.66 110.33 C 180.45 106.88 176.62 104.06 173.54 100.50 C 171.82 98.64 172.43 95.81 172.56 93.52 Z" />
<path fill="#ffffff" opacity="1.00" d=" M 196.54 89.86 C 197.81 89.73 199.10 89.64 200.38 89.57 C 200.47 94.19 200.42 98.81 200.44 103.43 C 203.40 103.42 206.36 103.42 209.32 103.35 C 209.37 98.80 209.10 94.24 209.47 89.70 C 210.27 89.66 211.87 89.58 212.68 89.54 C 212.72 99.69 212.96 109.85 212.57 119.99 C 211.77 120.01 210.18 120.06 209.38 120.09 C 209.26 115.49 209.28 110.89 209.35 106.29 C 206.37 106.14 203.39 106.14 200.41 106.18 C 200.44 110.78 200.45 115.38 200.40 119.98 C 199.10 119.92 197.81 119.87 196.51 119.81 C 196.64 109.83 196.60 99.84 196.54 89.86 Z" />
<path fill="#ffffff" opacity="1.00" d=" M 232.50 89.67 C 236.97 89.64 241.43 89.57 245.90 89.73 C 245.82 90.34 245.67 91.56 245.60 92.17 C 242.53 92.59 239.42 92.33 236.34 92.36 C 236.33 96.05 236.32 99.74 236.34 103.43 C 238.79 103.41 241.23 103.43 243.68 103.41 C 243.68 104.10 243.66 105.47 243.66 106.15 C 241.20 106.14 238.76 106.17 236.31 106.17 C 236.35 110.74 236.31 115.31 236.35 119.88 C 235.38 119.90 233.45 119.94 232.49 119.95 C 232.49 109.86 232.46 99.77 232.50 89.67 Z" />
<path fill="#ffffff" opacity="1.00" d=" M 252.74 91.77 C 254.77 89.28 258.18 89.49 261.07 89.65 C 263.82 89.77 267.03 91.83 266.64 94.94 C 266.65 103.41 266.85 111.88 266.50 120.34 C 265.51 119.51 264.54 118.65 263.61 117.76 C 260.62 120.37 255.70 121.03 252.54 118.36 C 250.46 115.78 250.53 112.27 250.68 109.13 C 250.82 106.43 252.24 103.48 255.00 102.63 C 257.77 102.38 260.57 102.51 263.36 102.44 C 263.32 99.84 263.51 97.22 263.22 94.63 C 261.68 91.77 258.07 92.13 255.61 93.44 C 255.52 94.65 255.40 95.85 255.25 97.06 C 255.09 99.06 252.57 98.05 251.32 98.19 C 251.57 96.03 251.02 93.47 252.74 91.77 M 254.83 107.10 C 254.61 110.15 253.82 113.74 255.66 116.42 C 257.80 117.40 260.54 116.88 262.02 115.00 C 264.33 112.33 263.02 108.52 263.36 105.33 C 260.54 105.55 256.62 104.17 254.83 107.10 Z" />
<path fill="#ffffff" opacity="1.00" d=" M 275.51 89.58 C 276.90 90.15 278.32 92.28 279.92 90.98 C 283.14 88.75 287.36 89.36 290.30 91.75 C 293.79 89.31 299.41 88.22 302.26 92.18 C 303.12 95.03 302.65 98.07 302.76 101.01 C 302.63 107.33 303.01 113.67 302.58 119.99 C 301.80 120.01 300.22 120.06 299.44 120.09 C 299.25 111.31 299.49 102.53 299.30 93.75 C 296.61 91.54 293.62 92.81 291.39 94.94 C 291.22 103.19 291.25 111.45 291.37 119.71 C 290.06 119.83 288.76 119.96 287.46 120.08 C 287.30 111.30 287.53 102.51 287.33 93.73 C 284.63 91.52 281.62 92.83 279.39 94.96 C 279.28 103.21 279.26 111.47 279.40 119.73 C 278.09 119.84 276.79 119.95 275.49 120.06 C 275.41 109.90 275.37 99.74 275.51 89.58 Z" />
</g>
</svg>
